<?xml version="1.0" encoding="utf-8"?>
<!-- Generator: Adobe Illustrator 18.0.0, SVG Export Plug-In . SVG Version: 6.00 Build 0)  -->
<!DOCTYPE svg PUBLIC "-//W3C//DTD SVG 1.1//EN" "http://www.w3.org/Graphics/SVG/1.1/DTD/svg11.dtd">
<svg version="1.1" id="Layer_1" xmlns="http://www.w3.org/2000/svg" xmlns:xlink="http://www.w3.org/1999/xlink" x="0px" y="0px"
	 viewBox="0 0 122 99" enable-background="new 0 0 122 99" xml:space="preserve">
<g>
	<g>
		<path fill="#FFFFFF" d="M0,99V13l0.4,0L122,0v86l-0.4,0L0,99z M1,13.9v84l120-12.8v-84L1,13.9z"/>
	</g>
	<g>
		<g>
			<path fill="#FFFFFF" d="M43.6,32.8l7.2-0.8l-0.3,1.4L44.7,34l-1,5l4.8-0.5l-0.3,1.3l-4.8,0.5l-1.5,7.4l-1.5,0.2L43.6,32.8z"/>
		</g>
		<g>
			<path fill="#FFFFFF" d="M61.1,38.3c-0.4,1.9-1.5,7.7-5.7,8.2c-4.2,0.4-2.9-5.4-2.5-7.3c0.5-2.5,1.8-7.7,5.7-8.1
				C62.8,30.6,61.5,36.3,61.1,38.3z M54.5,39c-0.8,4-0.9,6.3,1.2,6c2.6-0.3,3.3-4,3.9-6.6c0.6-2.8,1.4-6.3-1.2-6S55,36.8,54.5,39z"
				/>
		</g>
		<g>
			<path fill="#FFFFFF" d="M74.2,36.9c-0.4,1.9-1.5,7.7-5.7,8.2c-4.2,0.4-2.9-5.4-2.5-7.3c0.5-2.5,1.8-7.7,5.7-8.1
				C75.9,29.2,74.7,34.9,74.2,36.9z M67.6,37.6c-0.8,4-0.9,6.3,1.2,6c2.6-0.3,3.3-4,3.8-6.6c0.6-2.8,1.4-6.3-1.2-6
				C68.9,31.3,68.1,35.4,67.6,37.6z"/>
		</g>
		<g>
			<path fill="#FFFFFF" d="M80.3,30.2l0.3-1.4l3.9-0.4c2.9-0.3,4.4,0.8,3.1,7c-0.7,3.3-1.7,7.5-6.2,8l-3.9,0.4l0.3-1.4l1.2-0.1
				l2.6-12.3L80.3,30.2z M80.4,42.2l1.2-0.1c1.8-0.2,3.2-0.8,4.4-6.5c1.2-5.7-0.2-6-1.5-5.9l-1.6,0.2L80.4,42.2z"/>
		</g>
		<g>
			<path fill="#FFFFFF" d="M48.1,54.3l1.8-0.2l-2.7,15l-1.6,0.2L48,56.8l0,0l-4.1,7.8l-0.9-7.3l0,0L40,69.9L38.5,70L42,55l1.8-0.2
				l0.8,6.1L48.1,54.3z"/>
		</g>
		<g>
			<path fill="#FFFFFF" d="M56,53.5l7.2-0.8l-0.3,1.4l-5.7,0.6l-1,5l4.7-0.5l-0.3,1.3L55.9,61l-1.3,6l5.7-0.6L60,67.7l-7.2,0.8
				L56,53.5z"/>
		</g>
		<g>
			<path fill="#FFFFFF" d="M67.8,52.2l1.8-0.2l1.7,12.2l0,0l0.6-3.3l1.9-9.2l1.5-0.2l-3.1,15l-1.8,0.2l-1.7-12.2l0,0l-0.6,3.4
				l-1.9,9.2l-1.5,0.2L67.8,52.2z"/>
		</g>
		<g>
			<path fill="#FFFFFF" d="M82.8,50.6l-2.3,10.9c-0.3,1.5-0.3,2.9,1.5,2.7c1.8-0.2,2.4-1.6,2.8-3.1L87,50.2l1.5-0.2l-2.4,11.4
				c-0.5,2.3-2.2,4-4.4,4.2c-2.2,0.2-3.3-1.2-2.8-3.4l2.4-11.4L82.8,50.6z"/>
		</g>
	</g>
</g>
</svg>
