<?xml version="1.0" encoding="utf-8"?>
<!-- Generator: Adobe Illustrator 18.0.0, SVG Export Plug-In . SVG Version: 6.00 Build 0)  -->
<!DOCTYPE svg PUBLIC "-//W3C//DTD SVG 1.1//EN" "http://www.w3.org/Graphics/SVG/1.1/DTD/svg11.dtd">
<svg version="1.1" id="Layer_1" xmlns="http://www.w3.org/2000/svg" xmlns:xlink="http://www.w3.org/1999/xlink" x="0px" y="0px"
	 viewBox="0 179.4 595.3 483.1" enable-background="new 0 179.4 595.3 483.1" xml:space="preserve">
<g>
	<path fill="#FFFFFF" d="M0,662.5V242.8h2l593.3-63.4V599h-2L0,662.5z M4.9,247.2v409.9l585.5-62.5V184.8L4.9,247.2z"/>
</g>
<g>
	<g>
		<path fill="#FFFFFF" d="M146.4,353.1l1.5-6.8l19-2c14.2-1.5,21.5,3.9,15.1,34.2c-3.4,16.1-8.3,36.6-30.3,39l-19,2l1.5-6.8l5.9-0.5
			l12.7-60L146.4,353.1z M146.9,411.7l5.9-0.5c8.8-1,15.6-3.9,21.5-31.7c5.9-27.8-1-29.3-7.3-28.8l-7.8,1L146.9,411.7z"/>
	</g>
	<g>
		<path fill="#FFFFFF" d="M216.2,339l19.5-2c7.3-1,14.6,4.4,11.7,17.6c-2,8.8-7.3,18.1-16.6,22l8.3,29.8l-7.3,3.9L223,378l-8.3,1
			l-6.8,32.7l-7.3,1L216.2,339z M216.2,372.6l10.7-1c6.3-0.5,11.2-5.9,13.2-15.6c2-9.8-2-12.2-9.3-11.7l-8.8,1L216.2,372.6z"/>
	</g>
	<g>
		<path fill="#FFFFFF" d="M284,338.5l-9.8,1l1.5-6.8l26.8-2.9l-1.5,6.8l-9.8,1l-12.7,60l9.8-1l-1.5,6.8l-26.8,2.9l1.5-6.8l9.8-1
			L284,338.5z"/>
	</g>
	<g>
		<path fill="#FFFFFF" d="M329.4,327.3l8.8-1l8.3,59.5l0,0l2.9-16.1l9.3-44.9l7.3-1L350.8,397l-8.8,1l-8.3-59.5l0,0l-2.9,16.6
			l-9.3,44.9l-7.3,1L329.4,327.3z"/>
	</g>
	<g>
		<path fill="#FFFFFF" d="M397.2,349.2h2l26.8-33.7l4.9,2.9L405,351.7l15.6,35.1l-6.8,4.4l-15.1-35.6l-2.4,0.5l-7.8,36.6l-7.3,1
			l15.1-73.2l7.3-1L397.2,349.2z"/>
	</g>
	<g>
		<path fill="#FFFFFF" d="M461.1,349.2c-7.3-3.9-11.7-6.8-9.8-17.6c2-9.8,10.2-19.5,20.5-20.5c10.2-1,13.7,5.9,13.7,14.6l-7.3,2
			c0-5.4-1.5-10.2-7.8-9.8c-6.8,0.5-10.2,6.3-11.7,12.7c-1,5.9-0.5,7.8,9.3,13.2c7.8,4.4,12.7,8.3,10.2,19.5
			c-2.4,11.7-10.2,21.5-22.4,22.4c-12.7,1.5-15.6-6.8-14.2-18.1l7.3-2c-1,7.8-0.5,14.2,8.3,13.2c6.3-0.5,11.7-5.4,13.7-14.2
			C472.8,355.6,467.4,352.6,461.1,349.2z"/>
	</g>
	<g>
		<path fill="#FFFFFF" d="M234.7,444.4l8.8-1l-13.2,73.2l-7.8,1l11.7-61l0,0l-20,38.1l-4.4-35.6l0,0l-14.6,61.5l-7.3,0.5l17.1-73.2
			l8.8-1l3.9,29.8L234.7,444.4z"/>
	</g>
	<g>
		<path fill="#FFFFFF" d="M273.2,440.5l35.1-3.9l-1.5,6.8l-27.8,2.9l-4.9,24.4l22.9-2.4l-1.5,6.3l-22.9,2.4l-6.3,29.3l27.8-2.9
			l-1.5,6.3l-35.1,3.9L273.2,440.5z"/>
	</g>
	<g>
		<path fill="#FFFFFF" d="M331.3,434.1l8.8-1l8.3,59.5l0,0l2.9-16.1l9.3-44.9l7.3-1l-15.1,73.2l-8.8,1l-8.3-59.5l0,0l-2.9,16.6
			l-9.3,44.9l-7.3,1L331.3,434.1z"/>
	</g>
	<g>
		<path fill="#FFFFFF" d="M404,426.3l-11.2,53.2c-1.5,7.3-1.5,14.2,7.3,13.2c8.8-1,11.7-7.8,13.7-15.1l10.7-53.2l7.3-1L420.1,479
			c-2.4,11.2-10.7,19.5-21.5,20.5c-10.7,1-16.1-5.9-13.7-16.6l11.7-55.6L404,426.3z"/>
	</g>
</g>
</svg>
